<svg xmlns="http://www.w3.org/2000/svg" viewBox="0 0 200.49 173.63"><defs><style>.cls-1{fill:none;stroke-width:8.5px;}.cls-1,.cls-3{stroke:#3d4260;stroke-miterlimit:10;}.cls-2,.cls-3{fill:#3d4260;}</style></defs><title>Ativo 8</title><g id="Camada_2" data-name="Camada 2"><g id="Camada_1-2" data-name="Camada 1"><polygon class="cls-1" points="147.91 4.25 52.58 4.25 4.91 86.81 52.58 169.38 147.91 169.38 195.58 86.81 147.91 4.25"/><path class="cls-2" d="M174.67,103.51H151.28a25.06,25.06,0,0,1-20.6-11.69l-1-1.77-19-32.94a13.26,13.26,0,0,0-11.49-6.63l9.06-15.69L118,17.88c.17,0,.36,0,.54,0l.87,0c.3,0,.58.06.86.11a8.18,8.18,0,0,1,1.51.34,11.05,11.05,0,0,1,3.71,1.85,10.47,10.47,0,0,1,2.07,2,10.78,10.78,0,0,1,.92,1.29l4.52,7.8L146.08,54l2.06,3.57,7.6,13.17,14.4,25Z"/><path class="cls-2" d="M129.52,103.51h-23.4a25.06,25.06,0,0,1-20.6-11.69l-1-1.77-19-32.94A13.26,13.26,0,0,0,54,50.47l9.08-15.71,9.75-16.89c.19,0,.37,0,.56,0s.58,0,.87,0a8.44,8.44,0,0,1,.86.09,11.84,11.84,0,0,1,1.51.34,11.56,11.56,0,0,1,5.78,3.86,10.49,10.49,0,0,1,.9,1.28l.26.44s0,.08.06.12l17.31,30L103,57.55l22,38.11Z"/><path class="cls-2" d="M83.59,103.51H37.35l-.37,0a14.7,14.7,0,0,1-10-4.27,13.06,13.06,0,0,1-1.17-1.29l6-10.45,4.25-7.36,1.74-3,1.7-3,9.64-16.67c.08-.12.14-.23.22-.34a13.81,13.81,0,0,1,3,.56,14.59,14.59,0,0,1,7.35,4.9,13.41,13.41,0,0,1,1.15,1.63l.33.56,1.45,2.52,5.65,9.79Z"/><path class="cls-3" d="M131.12,132.64a3,3,0,0,1,2.43.54c.71.47,1.3,1.08,2,1.52a2.78,2.78,0,0,0,2.45.36,1.28,1.28,0,0,0,.55-2A3.64,3.64,0,0,0,142,131a3.29,3.29,0,0,0-.94-3.75,6.73,6.73,0,0,0,4.32-7.38c-.26-1.26-.91-2.5-.69-3.76.17-1,.9-1.95.81-3a2.67,2.67,0,0,0-2.88-2.07,4.62,4.62,0,0,0-3.27,2,16.1,16.1,0,0,0-1.73,3.4,38,38,0,0,1-7.1,10.82"/><path class="cls-3" d="M140.85,127.19l-8.7,1.88"/><path class="cls-3" d="M139,132.14l-6.2-2.09"/><path class="cls-3" d="M125.65,134.3a2.73,2.73,0,0,0-1.78,1.57c-.36.72-.55,1.51-.94,2.21A2.56,2.56,0,0,1,121,139.5c-.84.07-1.73-.69-1.49-1.45a3.71,3.71,0,0,1-4-.2,3.23,3.23,0,0,1-1.12-3.61A7.06,7.06,0,0,1,107,130c-.42-1.18-.51-2.53-1.34-3.5-.67-.78-1.76-1.24-2.2-2.16a2.43,2.43,0,0,1,1.38-3.07,4.71,4.71,0,0,1,3.78.17,17.08,17.08,0,0,1,3.21,2.1,40.33,40.33,0,0,0,11.55,5.93"/><path class="cls-3" d="M107.39,127.54a21.12,21.12,0,0,1,10.15,3.36"/><path class="cls-3" d="M115.2,134.31l7.94-2.26"/><path class="cls-3" d="M120,137.59l3.36-3.68"/><path class="cls-3" d="M128.91,123.35a7.36,7.36,0,0,0,1.46-2.07,2.38,2.38,0,0,0-.23-2.38,4.09,4.09,0,0,0-2.87-1l-2.09-.19a4.06,4.06,0,0,0-1.88.12,3.83,3.83,0,0,0-1,.7l-1.55,1.33a4.87,4.87,0,0,0-1.39,1.6,2.34,2.34,0,0,0,.48,2.54,2.69,2.69,0,0,0,2.65.64"/><path class="cls-3" d="M127.9,125.59a4,4,0,0,0-4.49,1.34"/><path class="cls-3" d="M131.17,133.48a23.92,23.92,0,0,1,4.76,6,7.51,7.51,0,0,1-.11,7.25c-.65,1.05-1.61,2-2.18,3.06A2.43,2.43,0,0,0,134,153"/><path class="cls-3" d="M126,135.31a22.53,22.53,0,0,0-1,7.46,7.83,7.83,0,0,0,3.89,6.25c1.11.61,2.43,1,3.5,1.64s1.85,1.82,1.37,2.92"/><path class="cls-3" d="M127.94,128.15a2.72,2.72,0,0,0-3.28.58,2.67,2.67,0,0,0-.1,3.21,3.5,3.5,0,0,0,3.16,1.34,3.21,3.21,0,0,0,2.39-1.37,2.26,2.26,0,0,0-.08-2.58,2.16,2.16,0,0,0-2.59-.56"/><path class="cls-3" d="M134.93,143.47a5.45,5.45,0,0,1-3.56,3,5.82,5.82,0,0,1-4.71-.79"/><path class="cls-3" d="M133.2,137.39a9,9,0,0,1-7.59,1.53"/><path class="cls-3" d="M122.85,139.08c-2.6,1.61-2.89,5.12-2.05,7.91s2.5,5.36,2.88,8.23a10.28,10.28,0,0,1-5.33,10.06"/><path class="cls-3" d="M119.21,137.68c-2.23,1.74-4.59,3.66-5.28,6.3a12,12,0,0,0,.39,5.72"/><path class="cls-3" d="M136.7,135.19c2.88.55,4.92,3,6.09,5.49s1.75,5.26,3.12,7.69,3.83,4.6,6.77,4.58"/><path class="cls-3" d="M137.52,132.93A12.1,12.1,0,0,1,148,141.22"/><path class="cls-3" d="M131.2,123.32a14.72,14.72,0,0,0,3.76-9.89,25.82,25.82,0,0,1,0-4.05,4.23,4.23,0,0,1,2.19-3.33"/><path class="cls-3" d="M119,125.5a8.12,8.12,0,0,1-5.15-3.2c-1-1.4-1.46-3.08-2.52-4.43s-3.1-2.31-4.65-1.44"/></g></g></svg>